<svg xmlns="http://www.w3.org/2000/svg" viewBox="0 0 374.68 312.5"><defs><style>.cls-1{fill:none;stroke:#fafafa;stroke-miterlimit:10;stroke-width:2px;}.cls-2{fill:#fafafa;}</style></defs><title>Asset 1</title><g id="Layer_2" data-name="Layer 2"><g id="Layer_5" data-name="Layer 5"><path class="cls-1" d="M365,180.6A182,182,0,0,0,1,183"/><path class="cls-2" d="M374.19,166.69a1,1,0,0,0-1.37.34l-7.89,13.11-8.54-12.69a1,1,0,1,0-1.66,1.11l9.41,14a1,1,0,0,0,.86.44,1,1,0,0,0,.83-.48l8.7-14.46a1,1,0,0,0,.15-.54A1,1,0,0,0,374.19,166.69Z"/></g><g id="Layer_4" data-name="Layer 4"><path class="cls-2" d="M182.5,54.5a129,129,0,1,0,129,129A129,129,0,0,0,182.5,54.5Zm0,220.54A91.54,91.54,0,1,1,274,183.5,91.55,91.55,0,0,1,182.5,275Z"/></g></g></svg>